<svg id="female3" xmlns="http://www.w3.org/2000/svg" viewBox="0 0 250 1132">
  <metadata><?xpacket begin="﻿" id="W5M0MpCehiHzreSzNTczkc9d"?>
<x:xmpmeta xmlns:x="adobe:ns:meta/" x:xmptk="Adobe XMP Core 5.6-c138 79.159824, 2016/09/14-01:09:01        ">
   <rdf:RDF xmlns:rdf="http://www.w3.org/1999/02/22-rdf-syntax-ns#">
      <rdf:Description rdf:about=""/>
   </rdf:RDF>
</x:xmpmeta>





















<?xpacket end="w"?></metadata>
<defs>
    <style>
      .f3-1 {
        fill: #8d5524;
      }

      .f3-2 {
        fill: #734721;
      }

      .f3-3, .f3-4 {
        fill-rule: evenodd;
      }

      .f3-4 {
        fill: #00aeef;
      }
    </style>
  </defs>
  <ellipse id="hair" cx="125.5" cy="99" rx="86.5" ry="99"/>
  <rect id="rightarm" class="f3-1" x="198.72" y="420.25" width="51.28" height="236.781" rx="21.5" ry="21.5"/>
  <rect id="neck" class="f3-2" x="96.97" y="150.438" width="56.41" height="119.031" rx="21.5" ry="21.5"/>
  <rect id="head" class="f3-1" x="70.88" y="50" width="109.43" height="153.969" rx="49.495" ry="49.495"/>
  <rect id="leftarm" class="f3-1" y="420.312" width="51.28" height="236.782" rx="21.5" ry="21.5"/>
  <rect id="torso" x="27.28" y="225.781" width="196.84" height="477.125" rx="80" ry="80"/>
  <path id="leftsleeve" d="M21.5,255.469h8.28a21.5,21.5,0,0,1,21.5,21.5V433.75a0,0,0,0,1,0,0H0a0,0,0,0,1,0,0V276.969A21.5,21.5,0,0,1,21.5,255.469Z"/>
  <path id="rightsleeve" d="M220.22,255.062h8.28a21.5,21.5,0,0,1,21.5,21.5V433.406a0,0,0,0,1,0,0H198.72a0,0,0,0,1,0,0V276.562A21.5,21.5,0,0,1,220.22,255.062Z"/>
  <path id="rightleg" d="M165.16,622.344h9.9a34.5,34.5,0,0,1,34.5,34.5V1132a0,0,0,0,1,0,0h-78.9a0,0,0,0,1,0,0V656.844A34.5,34.5,0,0,1,165.16,622.344Z"/>
  <path id="leftleg" d="M78.59,622.344h9.88a34.5,34.5,0,0,1,34.5,34.5V1132a0,0,0,0,1,0,0H44.09a0,0,0,0,1,0,0V656.844A34.5,34.5,0,0,1,78.59,622.344Z"/>
  <path id="lefteyebrow" class="f3-3" d="M2713.99,247.169L2683.08,235l-2.07,2.834L2711.92,250Z" transform="translate(-2547 -127)"/>
  <path id="righteyebrow" class="f3-3" d="M2632.01,247.169L2662.92,235l2.07,2.834L2634.08,250Z" transform="translate(-2547 -127)"/>
  <path id="mouth" d="M106.563,147h38.875A4.563,4.563,0,0,1,150,151.563V156a24,24,0,0,1-24,24h0a24,24,0,0,1-24-24v-4.438A4.563,4.563,0,0,1,106.563,147Z"/>
  <path id="bluehangdow_" data-name="bluehangdow " class="f3-4" d="M2619.72,365.283c5.41,0.262,14.22.368,24.54,0.4A10.021,10.021,0,0,1,2654,375.7c-0.01,69.356-.19,139.64-4.2,230.156-0.34,7.619-4.58,1.538-9.42-5.436-9.67-13.659-19.3-5.756-29.24,13.83-5.06,10.128-8.58,14.319-7.75,5.825,9.27-101.884,11.59-171.415,12.3-244.506,0.06-5.856,1.28-10.448,4.03-10.288h0Z" transform="translate(-2547 -127)"/>
  <path id="bluescarf" class="f3-4" d="M2595.12,374.445c1.11-17.646,4.02-32.676,14.91-31.219a49.226,49.226,0,0,1,6.31,1.423c1.17,0.327,2.33.674,3.42,1,0.54,0.16,1.06.314,1.56,0.454,0.25,0.07.49,0.137,0.73,0.2,0.11,0.032.23,0.062,0.34,0.091l0.34,0.085c28.05,8.056,65.21,39.536,86.15-1.2a16.9,16.9,0,0,1,6.75-6.884,12.246,12.246,0,0,1,4.59-1.408,10.456,10.456,0,0,1,2.27.035,9.016,9.016,0,0,1,1.07.2c0.18,0.043.35,0.091,0.52,0.143s0.33,0.109.5,0.17c17.88,6.7,19.64,23.1,19.43,42.867a21.088,21.088,0,0,1-3.04,9.422,32.65,32.65,0,0,1-3.17,4.685,22.58,22.58,0,0,1-1.85,2.015c-0.32.307-.65,0.6-0.98,0.868-0.16.135-.33,0.266-0.5,0.391s-0.33.245-.5,0.359c-42.05,28.655-84.54,28.835-128.96-5.706a30.106,30.106,0,0,1-7.21-9,26.9,26.9,0,0,1-2.08-4.787,14.682,14.682,0,0,1-.5-2.186,9.3,9.3,0,0,1-.1-1.028c-0.01-.168-0.01-0.333-0.01-0.5S2595.11,374.605,2595.12,374.445Z" transform="translate(-2547 -127)"/>
</svg>
