<svg id="female1" xmlns="http://www.w3.org/2000/svg" viewBox="0 0 252 1095.656">
  <metadata><?xpacket begin="﻿" id="W5M0MpCehiHzreSzNTczkc9d"?>
<x:xmpmeta xmlns:x="adobe:ns:meta/" x:xmptk="Adobe XMP Core 5.6-c138 79.159824, 2016/09/14-01:09:01        ">
   <rdf:RDF xmlns:rdf="http://www.w3.org/1999/02/22-rdf-syntax-ns#">
      <rdf:Description rdf:about=""/>
   </rdf:RDF>
</x:xmpmeta>





















<?xpacket end="w"?></metadata>
<defs>
    <style>
      .f1-1 {
        fill: #534741;
      }

      .f1-1, .f1-4, .f1-5 {
        fill-rule: evenodd;
      }

      .f1-2 {
        fill: #e0ac69;
      }

      .f1-3 {
        fill: #c5975c;
      }

      .f1-4 {
        fill: #f69679;
      }
    </style>
  </defs>
  <path id="hairback" class="f1-1" d="M964.779,163.346c20.457,0.29,36.811,5.882,48.161,23.24,11.35,16.77,17.69,45.3,18.06,77.914,0.05,65.06-29.57,117.428-66,117.5-36.424-.071-66.057-52.443-66-117.5,0.373-32.593,6.693-61.174,17.92-77.972,11.245-17.385,27.4-22.987,47.859-23.182h0Z" transform="translate(-837 -163.344)"/>
  <rect id="rightarm" class="f1-2" x="200.72" y="383.906" width="51.28" height="236.781" rx="21.5" ry="21.5"/>
  <rect id="neck" class="f1-3" x="98.969" y="114.094" width="56.406" height="119.031" rx="21.5" ry="21.5"/>
  <rect id="head" class="f1-2" x="72.875" y="13.656" width="109.435" height="153.969" rx="49.495" ry="49.495"/>
  <path id="scarfbehind" class="f1-4" d="M838.831,626.993c19.3,3.654,32.13,3.833,44.642,3.843-0.065,46.543.078,93.581,0.873,137.639,0.938,44.5,2.529,86.013,8.661,131.638-8.457-1.83-14.927-4-20.355-5.393a65.948,65.948,0,0,0-7.5-1.581q-0.872-.123-1.717-0.2t-1.671-.123c-1.1-.055-2.178-0.055-3.237,0-8.2-.009-16.9,5.74-21.517-1.971,8.025-42.426,10.977-78.972,10.8-122.642-0.215-42.777-3.561-92.678-8.973-141.2h0Z" transform="translate(-837 -163.344)"/>
  <rect id="leftarm" class="f1-2" x="2" y="383.968" width="51.281" height="236.782" rx="21.5" ry="21.5"/>
  <rect id="torso" x="29.281" y="189.437" width="196.839" height="477.125" rx="80" ry="80"/>
  <path id="leftsleeve" d="M23.5,219.125h8.281a21.5,21.5,0,0,1,21.5,21.5V397.406a0,0,0,0,1,0,0H2a0,0,0,0,1,0,0V240.625A21.5,21.5,0,0,1,23.5,219.125Z"/>
  <path id="rightsleeve" d="M222.22,218.718h8.28a21.5,21.5,0,0,1,21.5,21.5V397.062a0,0,0,0,1,0,0H200.72a0,0,0,0,1,0,0V240.218A21.5,21.5,0,0,1,222.22,218.718Z"/>
  <path id="rightleg" d="M167.156,586h9.9a34.5,34.5,0,0,1,34.5,34.5v475.156a0,0,0,0,1,0,0h-78.9a0,0,0,0,1,0,0V620.5A34.5,34.5,0,0,1,167.156,586Z"/>
  <path id="leftleg" d="M80.594,586h9.875a34.5,34.5,0,0,1,34.5,34.5v475.156a0,0,0,0,1,0,0H46.094a0,0,0,0,1,0,0V620.5A34.5,34.5,0,0,1,80.594,586Z"/>
  <path id="lefteyebrow" class="f1-5" d="M1005.99,247.169L975.081,235l-2.074,2.834L1003.92,250Z" transform="translate(-837 -163.344)"/>
  <path id="righteyebrow" class="f1-5" d="M924.007,247.169L954.919,235l2.074,2.834L926.081,250Z" transform="translate(-837 -163.344)"/>
  <path id="mouth" d="M108.563,110.656h38.875A4.563,4.563,0,0,1,152,115.219v4.437a24,24,0,0,1-24,24h0a24,24,0,0,1-24-24v-4.438A4.563,4.563,0,0,1,108.563,110.656Z"/>
  <path id="hairfront" class="f1-1" d="M965.014,176c13.857,0.2,26.022,2.655,36.946,11.609,10.6,7.7,20.41,24.847,22.27,40.478,0.14,0.967.23,1.856,0.29,2.66,0.02,0.4.04,0.782,0.05,1.141s0,0.7-.01,1.013a6.226,6.226,0,0,1-.61,2.757c-0.7,1.169-1.95.987-3.68,0.046-3.44-1.942-8.87-6.47-15.09-9.382-12.847-6.669-28.481-8.94-46.637-6.965-18.146.548-37.358,9.068-45.9,16.154-0.576.391-1.116,0.762-1.622,1.1s-0.978.657-1.418,0.936a11.633,11.633,0,0,1-2.267,1.193c-1.271.442-2.087,0.068-2.518-1.4a11.686,11.686,0,0,1-.352-2.98q-0.015-.943.043-2.079c0.038-.756.1-1.575,0.189-2.451a100.79,100.79,0,0,1,2.286-12.89c4.691-19.1,12.525-27.854,22.347-33.624C939.205,177.651,951.228,176.827,965.014,176Z" transform="translate(-837 -163.344)"/>
  <path id="pinkband" class="f1-4" d="M873.864,564.373c62.789,24.317,122.058,19.887,182.256.867,5.58-1.893,10.47,2.933,10.82,10.322,1.33,29.894,1.46,52.328-1.57,64.3-0.76,2.84-6.08,5.766-11.61,7.261-59.724,14.971-119.261,14.729-178.867-4.8-5.527-1.945-10.593-4.493-11.264-7.224-2.664-11.483-4.508-41.987-1.856-65.341,0.651-5.794,6.266-7.709,12.091-5.383h0Z" transform="translate(-837 -163.344)"/>
</svg>
