<svg id="male2" xmlns="http://www.w3.org/2000/svg" viewBox="0 0 283 1152">
  <metadata><?xpacket begin="﻿" id="W5M0MpCehiHzreSzNTczkc9d"?>
<x:xmpmeta xmlns:x="adobe:ns:meta/" x:xmptk="Adobe XMP Core 5.6-c138 79.159824, 2016/09/14-01:09:01        ">
   <rdf:RDF xmlns:rdf="http://www.w3.org/1999/02/22-rdf-syntax-ns#">
      <rdf:Description rdf:about=""/>
   </rdf:RDF>
</x:xmpmeta>





















<?xpacket end="w"?></metadata>
<defs>
    <style>
      .m2-1, .m2-4 {
        fill-rule: evenodd;
      }

      .m2-2 {
        fill: #c68642;
      }

      .m2-3 {
        fill: #ab743a;
      }

      .m2-4 {
        fill: #39b54a;
      }
    </style>
  </defs>
  <path id="hairback" class="m2-1" d="M1383.8,104c38.36,0.574,68.9,14.542,66.94,58.662-0.9,21.748-8.69,36.641-20.68,40.769-12.04,5.1-28.26-.564-47.22,2.549-18.9,1.374-36.43,10.307-48.66,4.868-12.32-4.117-19.34-22.606-19.3-45.567-0.07-46.255,30.55-60.557,68.92-61.281h0Z" transform="translate(-1240 -104)"/>
  <rect id="rightarm" class="m2-2" x="231" y="397" width="52" height="243" rx="21.5" ry="21.5"/>
  <rect id="neck" class="m2-3" x="106" y="120" width="72" height="122" rx="21.5" ry="21.5"/>
  <rect id="head" class="m2-2" x="87" y="17" width="111" height="158" rx="55.5" ry="55.5"/>
  <rect id="leftarm" class="m2-2" y="397" width="52" height="243" rx="21.5" ry="21.5"/>
  <rect id="torso" x="32" y="197" width="220" height="490" rx="80" ry="80"/>
  <path id="leftsleeve" d="M21.5,238h9A21.5,21.5,0,0,1,52,259.5V421a0,0,0,0,1,0,0H0a0,0,0,0,1,0,0V259.5A21.5,21.5,0,0,1,21.5,238Z"/>
  <path id="rightsleeve" d="M252.5,238h9A21.5,21.5,0,0,1,283,259.5V421a0,0,0,0,1,0,0H231a0,0,0,0,1,0,0V259.5A21.5,21.5,0,0,1,252.5,238Z"/>
  <path id="right" d="M185.5,629h11A34.5,34.5,0,0,1,231,663.5V1152a0,0,0,0,1,0,0H151a0,0,0,0,1,0,0V663.5A34.5,34.5,0,0,1,185.5,629Z"/>
  <path id="left" d="M86.5,629h11A34.5,34.5,0,0,1,132,663.5V1152a0,0,0,0,1,0,0H52a0,0,0,0,1,0,0V663.5A34.5,34.5,0,0,1,86.5,629Z"/>
  <path id="lefteyebrow" class="m2-1" d="M1423.99,189.169L1393.08,177l-2.07,2.834L1421.92,192Z" transform="translate(-1240 -104)"/>
  <path id="righteyebrow" class="m2-1" d="M1342.01,189.169L1372.92,177l2.07,2.834L1344.08,192Z" transform="translate(-1240 -104)"/>
  <path id="mouth" d="M123.563,112h38.875A4.563,4.563,0,0,1,167,116.563V121a24,24,0,0,1-24,24h0a24,24,0,0,1-24-24v-4.438A4.563,4.563,0,0,1,123.563,112Z"/>
  <ellipse id="hairfront" cx="146" cy="31" rx="56" ry="14"/>
  <path id="greenscarf" class="m2-4" d="M1453,338h6a10.029,10.029,0,0,1,10,10.056v38.212c0.02,5.611-4.94,4.81-10.08,11.511-1.89,1.94-3.74,4.183-5.65,5.492-5.18,4.508-10.31-12.273-10.27-17V348.056A10.032,10.032,0,0,1,1453,338h0Z" transform="translate(-1240 -104)"/>
  <path id="greenscarf-2" data-name="greenscarf" class="m2-4" d="M1328.78,305.758c37.16,23.431,81.83,34.208,126.99,11.5,5.09-2.212,11.16-3.294,13.43-1.425a36.32,36.32,0,0,1,3.71,3.793q0.96,1.13,1.98,2.448c0.17,0.22.33,0.443,0.5,0.671s0.34,0.458.51,0.693c0.34,0.469.69,0.954,1.03,1.451a72.731,72.731,0,0,1,7.46,13.563c0.92,2.243-.23,4.656-2.75,6.687a20.88,20.88,0,0,1-4.59,2.742q-1.335.6-2.79,1.092c-0.24.082-.48,0.162-0.73,0.24s-0.49.153-.73,0.226q-0.75.219-1.5,0.409c-70.61,17.313-113.74,12.342-169.21-20.979-6.38-4.113-8.33-2.129-8.26-2.561,0.25-.423-1.71-5.643-1.8-11.358a20.881,20.881,0,0,1,.34-4.312,13.938,13.938,0,0,1,1.42-4.094,12.362,12.362,0,0,1,7.59-5.924,13.416,13.416,0,0,1,3.14-.565c0.29-.02.59-0.035,0.89-0.044s0.61-.012.92-0.01c0.62,0,1.26.031,1.91,0.077a52.618,52.618,0,0,1,8.19,1.323c5.45,1.288,10.45,3.167,12.35,4.358h0Z" transform="translate(-1240 -104)"/>
</svg>
