<svg id="female2" xmlns="http://www.w3.org/2000/svg" viewBox="0 0 250 1111.938">
  <metadata><?xpacket begin="﻿" id="W5M0MpCehiHzreSzNTczkc9d"?>
<x:xmpmeta xmlns:x="adobe:ns:meta/" x:xmptk="Adobe XMP Core 5.6-c138 79.159824, 2016/09/14-01:09:01        ">
   <rdf:RDF xmlns:rdf="http://www.w3.org/1999/02/22-rdf-syntax-ns#">
      <rdf:Description rdf:about=""/>
   </rdf:RDF>
</x:xmpmeta>





















<?xpacket end="w"?></metadata>
<defs>
    <style>
      .f2-1 {
        fill: #a36209;
      }

      .f2-1, .f2-4, .f2-5 {
        fill-rule: evenodd;
      }

      .f2-2 {
        fill: #f1c27d;
      }

      .f2-3 {
        fill: #d1a76b;
      }

      .f2-5 {
        fill: #7accc8;
      }
    </style>
  </defs>
  <path id="hairback" class="f2-1" d="M1817.6,265.063c16.22,1.147,30.77.614,42.98,10.468,11.78,9.335,22.39,25.922,20.48,46.4-2.46,22.21-14.48,25.43-25.93,24.571-12.04-.92-25.08-3.264-36.63-1.742-11.45-.986-22.08,2.478-35.8,2.852-13.09.341-27.87-3.792-28.35-25.142a62.791,62.791,0,0,1,.04-7.4,51.186,51.186,0,0,1,.95-7,48.438,48.438,0,0,1,4.54-12.725,57.774,57.774,0,0,1,16.3-19.059c12.56-9.8,24.96-10.287,41.42-11.223h0Z" transform="translate(-1693 -147.062)"/>
  <rect id="rightarm" class="f2-2" x="198.72" y="400.188" width="51.28" height="236.781" rx="21.5" ry="21.5"/>
  <rect id="neck" class="f2-3" x="96.97" y="130.376" width="56.41" height="119.031" rx="21.5" ry="21.5"/>
  <rect id="head" class="f2-2" x="70.88" y="29.938" width="109.43" height="153.969" rx="49.495" ry="49.495"/>
  <rect id="leftarm" class="f2-2" y="400.25" width="51.28" height="236.782" rx="21.5" ry="21.5"/>
  <rect id="torso" x="27.28" y="205.719" width="196.84" height="477.125" rx="80" ry="80"/>
  <path id="leftsleeve" d="M21.5,235.407h8.28a21.5,21.5,0,0,1,21.5,21.5V413.688a0,0,0,0,1,0,0H0a0,0,0,0,1,0,0V256.907A21.5,21.5,0,0,1,21.5,235.407Z"/>
  <path id="rightsleeve" d="M220.22,235h8.28A21.5,21.5,0,0,1,250,256.5V413.344a0,0,0,0,1,0,0H198.72a0,0,0,0,1,0,0V256.5A21.5,21.5,0,0,1,220.22,235Z"/>
  <path id="rightleg" d="M165.16,602.282h9.9a34.5,34.5,0,0,1,34.5,34.5v475.156a0,0,0,0,1,0,0h-78.9a0,0,0,0,1,0,0V636.782a34.5,34.5,0,0,1,34.5-34.5Z"/>
  <path id="leftleg" d="M78.59,602.282h9.88a34.5,34.5,0,0,1,34.5,34.5v475.156a0,0,0,0,1,0,0H44.09a0,0,0,0,1,0,0V636.782a34.5,34.5,0,0,1,34.5-34.5Z"/>
  <path id="lefteyebrow" class="f2-4" d="M1859.99,247.169L1829.08,235l-2.07,2.834L1857.92,250Z" transform="translate(-1693 -147.062)"/>
  <path id="righteyebrow" class="f2-4" d="M1778.01,247.169L1808.92,235l2.07,2.834L1780.08,250Z" transform="translate(-1693 -147.062)"/>
  <path id="mouth" d="M106.563,126.938h38.875A4.563,4.563,0,0,1,150,131.5v4.437a24,24,0,0,1-24,24h0a24,24,0,0,1-24-24V131.5a4.563,4.563,0,0,1,4.563-4.563Z"/>
  <path id="hairfront" class="f2-1" d="M1818.6,147.063c16.22,1.147,30.77.614,42.98,10.468,11.78,9.335,22.39,25.922,20.48,46.4-2.46,22.21-14.48,25.43-25.93,24.571-12.04-.92-25.08-3.264-36.63-1.742-11.45-.986-22.08,2.478-35.8,2.852-13.09.341-27.87-3.792-28.35-25.142a62.791,62.791,0,0,1,.04-7.4,51.186,51.186,0,0,1,.95-7,48.438,48.438,0,0,1,4.54-12.725,57.774,57.774,0,0,1,16.3-19.059c12.56-9.8,24.96-10.287,41.42-11.223h0Z" transform="translate(-1693 -147.062)"/>
  <path id="turqscarf" class="f2-5" d="M1750.09,378h9.08a10.063,10.063,0,0,1,10.09,10.024c0.01,59.2.26,119.99,4.91,210.369,0.52,9.056-6.41-2.716-13.39-12.151-3.79-5.145-7.22-7.852-10.46-9.277-5.92-2.341-10.28-5.8-10.32-11.6V388.019A10.057,10.057,0,0,1,1750.09,378h0Z" transform="translate(-1693 -147.062)"/>
  <path id="turqscarf2" class="f2-5" d="M1764.93,357.189c21.69,28.633,77.04,41.246,112.4,6.382,3.87-4.781,15.03-6.213,20.3-1.3,5.61,4.64,7.62,10.137,8.33,15.941,0.53,4.935-4.03,12.239-9.34,15.87-46.28,26.69-99.57,31.3-149.43.975-5.78-4.151-10.76-11.957-10.11-16.928a27.912,27.912,0,0,1,9.24-17.682c6.05-5.794,16.62-7.159,18.61-3.259h0Z" transform="translate(-1693 -147.062)"/>
  <path id="turqscarf3" class="f2-5" d="M1885.97,378h-9.03c-5.54,0-10.03,3.949-10.03,8.83-0.02,52.147-.27,105.688-4.89,185.3-0.52,7.977,6.37-2.392,13.31-10.7,3.77-4.532,7.18-6.917,10.4-8.172,5.89-2.061,10.23-5.111,10.27-10.22V386.825c0-4.874-4.49-8.825-10.03-8.825h0Z" transform="translate(-1693 -147.062)"/>
</svg>
