<svg id="male3" xmlns="http://www.w3.org/2000/svg" viewBox="0 0 283 1145.562">
  <metadata><?xpacket begin="﻿" id="W5M0MpCehiHzreSzNTczkc9d"?>
<x:xmpmeta xmlns:x="adobe:ns:meta/" x:xmptk="Adobe XMP Core 5.6-c138 79.159824, 2016/09/14-01:09:01        ">
   <rdf:RDF xmlns:rdf="http://www.w3.org/1999/02/22-rdf-syntax-ns#">
      <rdf:Description rdf:about=""/>
   </rdf:RDF>
</x:xmpmeta>





















<?xpacket end="w"?></metadata>
<defs>
    <style>
      .m3-1 {
        fill: #736357;
      }

      .m3-1, .m3-4, .m3-5 {
        fill-rule: evenodd;
      }

      .m3-2 {
        fill: #ffdbac;
      }

      .m3-3 {
        fill: #e5c295;
      }

      .m3-5 {
        fill: #a864a8;
      }
    </style>
  </defs>
  <path id="hairback" class="m3-1" d="M2236.68,116.633c17.16,2.2,33.42,6.072,46.46,11.012,13.04,6.26,22.61,13.445,26.14,52.449,0.43,4.364.77,9.216,1.01,14.376s0.37,10.628.39,16.226c0.03,11.193-.41,22.922-1.4,33.7-1.95,21.887-6.13,40.061-12.28,49.537-6.14,9.847-14.15,10.889-23.92,7.481-9.76-3.028-21.38-10.473-34.27-8.713-12.65-1.677-25.73,5.543-37.22,8.686-5.76,1.773-11.13,2.622-15.94,2.023-0.3-.038-0.6-0.081-0.9-0.131s-0.59-.1-0.88-0.166c-0.58-.122-1.15-0.269-1.72-0.441a18.313,18.313,0,0,1-3.27-1.35,19.191,19.191,0,0,1-5.76-4.8c-7.02-8.047-10.8-24.915-11.69-46.519-0.12-2.654-.2-5.383-0.24-8.16q-0.03-2.084-.03-4.2c0-.706,0-1.413.01-2.123s0.01-1.422.01-2.135c0.08-5.708.29-11.52,0.6-17.255,0.64-11.47,1.69-22.637,2.92-32.035,5.36-40.623,12.01-47.757,24.76-55.564a139.24,139.24,0,0,1,21.79-8.707,86.745,86.745,0,0,1,12.52-2.786,62.645,62.645,0,0,1,6.43-.575,51.186,51.186,0,0,1,6.48.168h0Z" transform="translate(-2094 -116.438)"/>
  <rect id="rightarm" class="m3-2" x="231" y="390.562" width="52" height="243" rx="21.5" ry="21.5"/>
  <rect id="neck" class="m3-3" x="106" y="113.562" width="72" height="122" rx="21.5" ry="21.5"/>
  <rect id="head" class="m3-2" x="87" y="10.562" width="111" height="158" rx="55.5" ry="55.5"/>
  <rect id="leftarm" class="m3-2" y="390.562" width="52" height="243" rx="21.5" ry="21.5"/>
  <rect id="torso" x="32" y="190.562" width="220" height="490" rx="80" ry="80"/>
  <path id="leftsleeve" d="M21.5,231.562h9a21.5,21.5,0,0,1,21.5,21.5v161.5a0,0,0,0,1,0,0H0a0,0,0,0,1,0,0v-161.5A21.5,21.5,0,0,1,21.5,231.562Z"/>
  <path id="rightsleeve" d="M252.5,231.562h9a21.5,21.5,0,0,1,21.5,21.5v161.5a0,0,0,0,1,0,0H231a0,0,0,0,1,0,0v-161.5A21.5,21.5,0,0,1,252.5,231.562Z"/>
  <path id="right" d="M185.5,622.562h11a34.5,34.5,0,0,1,34.5,34.5v488.5a0,0,0,0,1,0,0H151a0,0,0,0,1,0,0v-488.5a34.5,34.5,0,0,1,34.5-34.5Z"/>
  <path id="left" d="M86.5,622.562h11a34.5,34.5,0,0,1,34.5,34.5v488.5a0,0,0,0,1,0,0H52a0,0,0,0,1,0,0v-488.5a34.5,34.5,0,0,1,34.5-34.5Z"/>
  <path id="lefteyebrow" class="m3-4" d="M2277.99,195.169L2247.08,183l-2.07,2.834L2275.92,198Z" transform="translate(-2094 -116.438)"/>
  <path id="righteyebrow" class="m3-4" d="M2196.01,195.169L2226.92,183l2.07,2.834L2198.08,198Z" transform="translate(-2094 -116.438)"/>
  <path id="mouth" d="M123.563,105.562h38.875A4.563,4.563,0,0,1,167,110.125v4.437a24,24,0,0,1-24,24h0a24,24,0,0,1-24-24v-4.438a4.563,4.563,0,0,1,4.563-4.563Z"/>
  <path id="hairfront" class="m3-1" d="M2236.24,124c29.05,0.116,52.67,8.485,52.76,18.7,0.15,10.469-23.98,18.237-58.82,28.13-17.35,4.961-35.42,11.391-44.97,7.865-10.08-2.556-11.65-15.068-8.54-25.606C2183.05,132,2207.33,124.037,2236.24,124Z" transform="translate(-2094 -116.438)"/>
  <path id="pinkscarf" class="m3-5" d="M2132.27,580.119c73.1,7.218,135.86,7.086,206.55-4.739a7.714,7.714,0,0,1,1.1-.1,7.31,7.31,0,0,1,1.06.051,7.223,7.223,0,0,1,1.98.537,8.438,8.438,0,0,1,3.25,2.581,11.855,11.855,0,0,1,2.04,4.162,14.418,14.418,0,0,1,.46,2.524c0.05,0.441.07,0.891,0.08,1.349s-0.01.924-.05,1.4c-1.63,23.973-2.74,43.328,1.72,65.8,0.72,3.551.28,6.592-1.15,8.568a5.678,5.678,0,0,1-2.86,2.1,6.823,6.823,0,0,1-1.93.333c-0.17.006-.35,0.006-0.53,0s-0.36-.017-0.55-0.034a9.982,9.982,0,0,1-1.14-.174c-73.28-13.984-137.49-13.379-211.48-7.976-6.28.519-10.35-3.336-9.25-8.776,3.32-17.246,4.94-35.608,1.77-56.512a13.115,13.115,0,0,1-.17-2.384,10.27,10.27,0,0,1,.07-1.122,9.182,9.182,0,0,1,.17-1.068,8.762,8.762,0,0,1,1.64-3.626,7.874,7.874,0,0,1,7.22-2.887h0Z" transform="translate(-2094 -116.438)"/>
</svg>
