<svg id="male1" xmlns="http://www.w3.org/2000/svg" viewBox="0 0 283 1160">
  <metadata><?xpacket begin="﻿" id="W5M0MpCehiHzreSzNTczkc9d"?>
<x:xmpmeta xmlns:x="adobe:ns:meta/" x:xmptk="Adobe XMP Core 5.6-c138 79.159824, 2016/09/14-01:09:01        ">
   <rdf:RDF xmlns:rdf="http://www.w3.org/1999/02/22-rdf-syntax-ns#">
      <rdf:Description rdf:about=""/>
   </rdf:RDF>
</x:xmpmeta>





















<?xpacket end="w"?></metadata>
<defs>
    <style>
      .m1-1 {
        fill: #c5975c;
      }

      .m1-2 {
        fill: #ac8451;
      }

      .m1-3, .m1-4, .m1-5 {
        fill-rule: evenodd;
      }

      .m1-4 {
        fill: #534741;
      }

      .m1-5 {
        fill: #92278f;
      }
    </style>
  </defs>
  <rect id="rightarm" class="m1-1" x="231" y="405" width="52" height="243" rx="21.5" ry="21.5"/>
  <rect id="neck" class="m1-2" x="106" y="128" width="72" height="122" rx="21.5" ry="21.5"/>
  <rect id="head" class="m1-1" x="87" y="25" width="111" height="158" rx="55.5" ry="55.5"/>
  <rect id="leftarm" class="m1-1" y="405" width="52" height="243" rx="21.5" ry="21.5"/>
  <rect id="torso" x="32" y="205" width="220" height="490" rx="80" ry="80"/>
  <path id="leftsleeve" d="M21.5,246h9A21.5,21.5,0,0,1,52,267.5V429a0,0,0,0,1,0,0H0a0,0,0,0,1,0,0V267.5A21.5,21.5,0,0,1,21.5,246Z"/>
  <path id="rightsleeve" d="M252.5,246h9A21.5,21.5,0,0,1,283,267.5V429a0,0,0,0,1,0,0H231a0,0,0,0,1,0,0V267.5A21.5,21.5,0,0,1,252.5,246Z"/>
  <path id="right" d="M185.5,637h11A34.5,34.5,0,0,1,231,671.5V1160a0,0,0,0,1,0,0H151a0,0,0,0,1,0,0V671.5A34.5,34.5,0,0,1,185.5,637Z"/>
  <path id="left" d="M86.5,637h11A34.5,34.5,0,0,1,132,671.5V1160a0,0,0,0,1,0,0H52a0,0,0,0,1,0,0V671.5A34.5,34.5,0,0,1,86.5,637Z"/>
  <path id="lefteyebrow" class="m1-3" d="M569.993,189.169L539.081,177l-2.074,2.834L567.919,192Z" transform="translate(-386 -96)"/>
  <path id="righteyebrow" class="m1-3" d="M488.007,189.169L518.919,177l2.074,2.834L490.081,192Z" transform="translate(-386 -96)"/>
  <path id="mouth" d="M123.563,120h38.875A4.563,4.563,0,0,1,167,124.563V129a24,24,0,0,1-24,24h0a24,24,0,0,1-24-24v-4.438A4.563,4.563,0,0,1,123.563,120Z"/>
  <path id="hair" class="m1-4" d="M485.307,105.554c8.213-6.462,23.178-8.957,39.954-9.489,2.049-.06,4.094-0.084,6.112-0.073s4.009,0.056,5.948.137c3.879,0.16,7.548.459,10.863,0.894,6.648,0.868,11.821,2.287,15.113,4.194,12.643,3.262,17.151,8.629,19.781,19.864a97.057,97.057,0,0,1,1.663,21.088q-0.015,1.581-.059,3.223t-0.116,3.336c-0.1,2.259-.228,4.588-0.395,6.967-0.334,4.754-.805,9.723-1.416,14.635,2.18-40.455-94.949-42.466-108.677-2.452-0.844-7.52-1.526-15.22-1.749-22.5q-0.086-2.73-.084-5.374t0.1-5.173c0.128-3.369.385-6.573,0.772-9.543,1.765-11.9,4.535-20.009,12.193-19.737h0Z" transform="translate(-386 -96)"/>
  <path id="scarf" class="m1-5" d="M455.531,309.112c4.62-17.112,22.265-16.887,36.49-9.391C492.152,383.166,492.152,469.8,502,550c-18.828-12.051-32.187-10.482-50-4.772C457.693,469.8,457.693,383.166,455.531,309.112Z" transform="translate(-386 -96)"/>
  <path id="scarf2" class="m1-5" d="M602.469,308.2c-4.62-15.827-22.265-15.619-36.49-8.686C565.848,376.691,565.848,456.822,556,531c18.828-11.146,32.187-9.7,50-4.413C600.307,456.822,600.307,376.691,602.469,308.2Z" transform="translate(-386 -96)"/>
</svg>
