<svg xmlns="http://www.w3.org/2000/svg" xmlns:xlink="http://www.w3.org/1999/xlink" viewBox="0 0 969 985" id="taneger">
  <metadata><?xpacket begin="﻿" id="W5M0MpCehiHzreSzNTczkc9d"?>
<x:xmpmeta xmlns:x="adobe:ns:meta/" x:xmptk="Adobe XMP Core 5.6-c138 79.159824, 2016/09/14-01:09:01        ">
   <rdf:RDF xmlns:rdf="http://www.w3.org/1999/02/22-rdf-syntax-ns#">
      <rdf:Description rdf:about=""/>
   </rdf:RDF>
</x:xmpmeta>

<?xpacket end="w"?></metadata>
<defs>
    <style>

      #taneger {
        height: 20vw;
        width: 20vw;
        max-height: 150px;
        max-width: 150px;
      }

      .tcls-1, .tcls-2, .tcls-3, .tcls-4, .tcls-5, .tcls-6, .tcls-7 {
        fill-rule: evenodd;
      }

      .tcls-1 {
        fill: url(#linear-gradient);
      }

      .tcls-2 {
        fill: #b0a59e;
      }

      .tcls-3 {
        fill: #a88100;
      }

      .tcls-4 {
        fill: #e3c107;
      }

      .tcls-5 {
        fill: url(#linear-gradient-2);
      }

      .tcls-6 {
        fill: url(#linear-gradient-3);
      }

      .tcls-7 {
        fill: #312d18;
      }
    </style>
    <linearGradient id="linear-gradient" x1="954.545" y1="653.375" x2="954.545" y2="612" gradientUnits="userSpaceOnUse">
      <stop offset="0" stop-color="#b27f1d"/>
      <stop offset="1" stop-color="#cfa957"/>
    </linearGradient>
    <linearGradient id="linear-gradient-2" x1="206.483" y1="612" x2="393.673" y2="728.969" gradientUnits="userSpaceOnUse">
      <stop offset="0" stop-color="#2c150b"/>
      <stop offset="0.76" stop-color="#e3c107"/>
      <stop offset="1" stop-color="#e3c107"/>
    </linearGradient>
    <linearGradient id="linear-gradient-3" x1="740.438" y1="585.484" x2="951.312" y2="662.235" gradientUnits="userSpaceOnUse">
      <stop offset="0" stop-color="#f69606"/>
      <stop offset="1" stop-color="#e3c107"/>
    </linearGradient>
  </defs>
  <g id="Artboard_1" data-name="Artboard 1">
    <path id="beak" class="tcls-1" d="M951.184,612c34.81-.205,64.5,10.538,70.416,25.983,6.25,17.59-49.18,6.825-78.154,12.357-28.16,8.07-55.626-.905-56.446-14.84C886.992,622.512,915.743,612,951.184,612Z" transform="translate(-92 -105)"/>
    <g id="leftwing">
      <animateTransform
        attributeName="transform"
        type="rotate"
        values="0;-1;0"
        dur="2.2s"
        begin="0.2s"
        repeatCount="indefinite"
      />
      <path id="wingdown" class="tcls-2" d="M568.574,602.048q7.856-3.406,15.88-6.128,4.008-1.362,8.046-2.556t8.1-2.214a176.43,176.43,0,0,1,32.517-5.159c21.562-1.258,42.582,2.242,60.834,13.971,37.322,21.725,59.559,85.025,69.747,164.425,2.771,19.527,4.978,38.706,7.074,57.045q0.786,6.88,1.553,13.607t1.539,13.285Q775.4,861.441,777,873.871c4.179,33.127,9.535,62.513,13.964,88.4,2.347,12.839,4.149,24.924,4.714,35.9q0.106,2.057.153,4.064c0.031,1.33.042,2.65,0.03,3.95q-0.034,3.9-.341,7.56a65.65,65.65,0,0,1-2.5,13.61c-5.08,16.62-17.8,27.52-42.406,26.84-1.48-.04-2.988-0.11-4.52-0.24q-1.149-.09-2.316-0.21c-0.778-.08-1.562-0.18-2.352-0.28-3.159-.41-6.409-0.99-9.734-1.72s-6.726-1.62-10.187-2.66-6.98-2.21-10.544-3.52c-14.261-5.22-29.205-12.51-43.99-20.72a744.323,744.323,0,0,1-82.8-54.395c-49.1-37.131-82.664-74.774-102.223-126.7A229.767,229.767,0,0,1,471.2,804.864q-0.894-4.874-1.565-9.736t-1.123-9.707q-0.9-9.684-.942-19.244A202.633,202.633,0,0,1,480,694.53c16.4-43.924,46.8-74.642,88.577-92.482h0Z" transform="translate(-92 -105)"/>
      <path id="innerwingdown" class="tcls-3" d="M640.226,633.881q4.762-2.065,9.626-3.716,2.429-.825,4.877-1.549t4.907-1.342a106.864,106.864,0,0,1,19.71-3.128c13.069-.762,25.81,1.36,36.873,8.47,22.622,13.17,36.1,51.544,42.276,99.679,1.679,11.838,3.017,23.465,4.288,34.583q0.476,4.171.941,8.249t0.933,8.053q0.933,7.953,1.9,15.487c2.533,20.083,5.779,37.9,8.464,53.591a173.89,173.89,0,0,1,2.857,21.761q0.065,1.246.093,2.462t0.018,2.4q-0.021,2.363-.207,4.584a39.767,39.767,0,0,1-1.515,8.25c-3.079,10.073-10.788,16.685-25.7,16.272q-1.345-.033-2.74-0.144-0.7-.056-1.4-0.13T745,907.541q-2.873-.374-5.9-1.044t-6.174-1.612q-3.145-.94-6.391-2.133a193.109,193.109,0,0,1-26.664-12.565,450.763,450.763,0,0,1-50.185-32.973c-29.763-22.51-50.106-45.331-61.961-76.811a139.335,139.335,0,0,1-6.52-23.57q-0.542-2.953-.948-5.9t-0.68-5.884q-0.549-5.871-.572-11.666a122.865,122.865,0,0,1,7.534-43.435c9.94-26.628,28.366-45.25,53.689-56.065h0Z" transform="translate(-92 -105)"/>
    </g>
    <path id="body" class="tcls-4" d="M625.663,551.062C753.706,546.337,859,583,860.842,632.945s-100.462,94.269-228.5,98.993S399,700,397.158,650.055,497.62,555.786,625.663,551.062Z" transform="translate(-92 -105)"/>
    <g id="rightwing">
      <animateTransform
        attributeName="transform"
        type="rotate"
        values="0;-1.5;0"
        dur="2s"
        repeatCount="indefinite"
      />
      <path id="wingup" class="tcls-2" d="M609.032,156.792q6.413-2.964,12.591-5.444t12.038-4.432a144.449,144.449,0,0,1,21.985-5.607,91.6,91.6,0,0,1,9.776-1.106q2.332-.132,4.551-0.118t4.324,0.172a44.387,44.387,0,0,1,14.95,3.568c17.572,7.718,24.177,27.878,26.54,55.256,2.314,27.408,1.643,61.429,3.578,97.345,1.6,36.037,5.8,74.027,10,112.627,1.037,9.642,2.029,19.087,2.915,28.3q0.666,6.908,1.247,13.631,0.288,3.36.553,6.669t0.5,6.565c1.266,17.357,1.92,33.545,1.731,47.931-0.382,28.9-4.054,49.928-12.55,60.617-8.246,11.191-22.075,11.543-41.772,9.624-9.832-.907-21.115-2.214-33.67-2.706-6.276-.25-12.865-0.3-19.725-0.054q-5.145.186-10.485,0.6-2.668.21-5.382,0.484t-5.467.612q-5.463.669-10.921,1.567t-10.868,1.988c-7.214,1.453-14.354,3.148-21.351,4.97-14,3.641-27.414,7.8-39.887,11.348-25,7.177-46.079,11.451-62.561,5.336-33-9.4-48.409-72.676-49.155-145.875q-0.03-3.353-.016-6.672t0.07-6.6q0.114-6.562.395-12.956t0.72-12.589q0.438-6.2,1.032-12.19a361.614,361.614,0,0,1,7.085-44.579c6.335-27.6,15.475-51.051,29.707-74.274,14.271-23.066,34.061-46.574,61.459-70.495,26.987-23.567,61.6-47.626,96.067-63.514h0Z" transform="translate(-92 -105)"/>
      <path id="innerwingup" class="tcls-3" d="M663.479,329.279q3.964-1.825,7.782-3.352T678.7,323.2a89.517,89.517,0,0,1,13.587-3.452,57.053,57.053,0,0,1,6.042-.681q1.442-.081,2.813-0.072t2.672,0.106a27.5,27.5,0,0,1,9.24,2.2c10.861,4.748,14.941,17.17,16.41,33.986,1.439,16.828,1.044,37.679,2.325,59.4,1.07,21.8,3.824,44.5,6.737,66.836,0.722,5.58,1.423,11,2.067,16.244q0.483,3.933.92,7.728,0.217,1.9.42,3.758t0.39,3.685c1,9.724,1.639,18.633,1.743,26.507,0.207,15.8-1.707,27.222-7.014,33.854-5.14,6.825-14.125,8.569-27.2,8.716-6.535.106-14.087-.1-22.661,0.007-4.287.052-8.83,0.181-13.629,0.449q-3.6.2-7.393,0.51-1.9.156-3.842,0.342t-3.94.406q-3.956.433-7.991,0.98t-8.135,1.195c-5.466.862-11.013,1.854-16.609,2.926-11.189,2.14-22.6,4.609-33.831,6.863-11.246,2.274-22.27,4.274-32.458,5.456-2.545.3-5.036,0.538-7.459,0.72q-0.909.067-1.8,0.124t-1.778.1q-1.764.087-3.471,0.123a74.433,74.433,0,0,1-12.557-.675c-32.824-2.342-24.673-39.162-10.662-84.87q0.615-2.072,1.233-4.127t1.237-4.085q1.238-4.064,2.473-8.027t2.461-7.8q1.227-3.842,2.446-7.557c3.255-9.911,6.459-19.091,9.77-27.615,6.643-17.073,13.667-31.529,23.376-45.811,9.712-14.185,22.286-28.608,39.361-43.305,16.814-14.478,38.18-29.283,59.49-39.062h0Z" transform="translate(-92 -105)"/>
    </g>
    <path id="tail" class="tcls-5" d="M147.264,640.054c98.7-1.117,196.514-15.416,294.081-27.984a9.657,9.657,0,0,1,2-.018,9.564,9.564,0,0,1,1.9.377,9.732,9.732,0,0,1,3.334,1.794,9.9,9.9,0,0,1,3.56,6.732c2.261,23.9,4.535,47.574,6.815,71.659a10.218,10.218,0,0,1,.046,1.028,9.6,9.6,0,0,1-.057,1,9.222,9.222,0,0,1-.4,1.876,8.344,8.344,0,0,1-1.835,3.118,8.514,8.514,0,0,1-6.772,2.574c-49.187-2.834-100.828-3.272-147.718-.276-48.091,3.224-91.43,9.882-151.734,26.514-0.441.117-.866,0.215-1.272,0.294s-0.795.138-1.163,0.179-0.718.063-1.046,0.067a7.456,7.456,0,0,1-.921-0.045,2.906,2.906,0,0,1-2.335-1.258c-0.821-1.382-.067-3.844,1.89-6.892,17.336-26.568,8.354-49.059-3.346-71.216q-0.246-.48-0.439-0.95t-0.333-.926a8.3,8.3,0,0,1-.349-1.759,5.458,5.458,0,0,1,.548-3.007c0.9-1.724,2.86-2.812,5.546-2.877h0Z" transform="translate(-92 -105)"/>
    <path id="head" class="tcls-6" d="M833.961,551.62c4.752,0.433,9.354,1.017,13.777,1.734q3.316,0.538,6.5,1.173t6.222,1.359a155.261,155.261,0,0,1,22.1,6.986,161.988,161.988,0,0,1,33.017,18.213c17.914,13.151,31.283,24.6,34.916,39.528q0.324,1.416.519,2.848t0.261,2.881a34.76,34.76,0,0,1-.237,5.857,43.9,43.9,0,0,1-3.369,11.975,70.3,70.3,0,0,1-16.935,23.1c-15.476,14.274-37.58,24.572-70,28.252-4.051.464-8.164,0.816-12.311,1.056q-3.111.181-6.243,0.279t-6.27.112a225.7,225.7,0,0,1-24.756-1.213c-16.069-1.7-30.534-5.233-40.842-10.685-21.656-10.8-22.171-29.709-24.4-53.047q-0.247-2.181-.522-4.356t-0.58-4.337c-0.4-2.883-.85-5.747-1.307-8.577-0.909-5.659-1.886-11.184-2.49-16.456-1.241-10.548-.722-20.065,5.278-27.673,10.641-15.327,49-22.576,87.678-19.012h0Z" transform="translate(-92 -105)"/>
    <path class="tcls-7" d="M880.133,575.8c11.366,0.378,18.146,10.788,19.1,15.886,1.423,5.576-5.214,11.635-15.527,10.768-9.3-.557-14.94-6.259-15.068-13.7C869.9,581.433,869.338,575.559,880.133,575.8Z" transform="translate(-92 -105)"/>
  </g>
</svg>
